<svg width="42" height="40" viewBox="0 0 42 40" fill="none" xmlns="http://www.w3.org/2000/svg">
<rect x="0.5" y="0.5" width="41" height="39" rx="19.5" fill="#83DEFF" stroke="#83DEFF"/>
<path d="M30.3334 29.625V27.375C30.3334 26.1815 29.8417 25.0369 28.9666 24.193C28.0914 23.3491 26.9044 22.875 25.6667 22.875H16.3334C15.0957 22.875 13.9088 23.3491 13.0336 24.193C12.1584 25.0369 11.6667 26.1815 11.6667 27.375V29.625M25.6667 13.875C25.6667 16.3603 23.5774 18.375 21.0001 18.375C18.4228 18.375 16.3334 16.3603 16.3334 13.875C16.3334 11.3897 18.4228 9.375 21.0001 9.375C23.5774 9.375 25.6667 11.3897 25.6667 13.875Z" stroke="white" stroke-width="4" stroke-linecap="round" stroke-linejoin="round"/>
</svg>
