<?xml version="1.0" encoding="UTF-8"?>
<svg version="1.1" xmlns="http://www.w3.org/2000/svg" width="1745" height="341">
<path d="M0 0 C575.85 0 1151.7 0 1745 0 C1745 112.53 1745 225.06 1745 341 C1169.15 341 593.3 341 0 341 C0 228.47 0 115.94 0 0 Z " fill="#FEFEFE" transform="translate(0,0)"/>
<path d="M0 0 C3.24928612 2.63772585 6.33895255 5.41504544 9.41015625 8.2578125 C10.18101562 8.9590625 10.951875 9.6603125 11.74609375 10.3828125 C19.39510404 17.65083761 24.57709302 26.25015187 29.59765625 35.4453125 C30.22196533 36.55676636 30.22196533 36.55676636 30.85888672 37.69067383 C37.3653596 49.95187052 39.12442365 62.28726058 38.91015625 76.0078125 C38.90494965 76.70136841 38.89974304 77.39492432 38.89437866 78.10949707 C38.60662324 110.91644149 24.65144514 136.25679593 3.9296875 161.01953125 C0.79869162 164.76673827 -2.22585472 168.58448937 -5.21484375 172.4453125 C-9.42908003 177.87116112 -13.82539443 183.11123943 -18.33178711 188.29638672 C-21.09369278 191.48082774 -23.72971803 194.70949375 -26.27734375 198.0703125 C-30.2440664 203.09370969 -34.71025301 207.59668437 -39.21484375 212.1328125 C-39.94405029 212.87120361 -40.67325684 213.60959473 -41.42456055 214.37036133 C-49.20881191 222.11024787 -49.20881191 222.11024787 -53.58984375 224.2578125 C-67.36300252 221.809724 -82.57881853 198.51735807 -90.75 187.91796875 C-93.75736065 184.02008409 -96.85381211 180.19817614 -99.96484375 176.3828125 C-100.50439697 175.71967041 -101.0439502 175.05652832 -101.59985352 174.37329102 C-104.41070409 170.92131806 -107.23066735 167.47705841 -110.05859375 164.0390625 C-133.26743636 135.76989337 -149.8126553 104.0175018 -146.58984375 66.2578125 C-145.78814026 60.76181168 -144.28124442 55.53855517 -142.58984375 50.2578125 C-142.25082031 49.16210938 -141.91179687 48.06640625 -141.5625 46.9375 C-136.86972372 33.34347904 -128.63959191 21.43640358 -118.58984375 11.2578125 C-117.96851563 10.57589844 -117.3471875 9.89398438 -116.70703125 9.19140625 C-86.26068934 -23.35687977 -35.01607412 -27.34881098 0 0 Z " fill="#0474A0" transform="translate(1639.58984375,66.7421875)"/>
<path d="M0 0 C15.68787115 11.40755098 25.91942998 24.32198023 29.578125 43.61328125 C30.67900076 55.45966174 30.41060354 65.82294242 25.890625 76.98828125 C25.48972656 77.9834375 25.08882812 78.97859375 24.67578125 80.00390625 C17.18828087 96.58492159 4.57005996 107.3013096 -12.109375 113.98828125 C-25.94137659 119.06942469 -45.38028904 119.3225965 -58.89697266 113.17529297 C-68.74829253 108.34936372 -68.74829253 108.34936372 -71.109375 105.98828125 C-73.93197542 105.88651199 -76.72435509 105.84756003 -79.546875 105.86328125 C-80.3620459 105.86521484 -81.1772168 105.86714844 -82.01708984 105.86914062 C-87.77244012 105.91034019 -93.39670688 106.25116278 -99.109375 106.98828125 C-100.21478587 103.72084361 -100.04974771 102.10053989 -98.640625 98.9765625 C-98.31707031 98.21794922 -97.99351563 97.45933594 -97.66015625 96.67773438 C-96.96685075 95.10942064 -96.26646619 93.54421479 -95.55859375 91.98242188 C-92.48480585 84.7143218 -92.80362476 78.66587563 -95.609375 71.30078125 C-100.1076202 59.35794024 -99.00199339 45.91890385 -95.109375 33.98828125 C-94.84253906 33.1375 -94.57570313 32.28671875 -94.30078125 31.41015625 C-88.69825428 15.57368001 -75.75117203 3.51367414 -61.109375 -4.01171875 C-42.1176356 -12.83313547 -17.66706647 -11.43032567 0 0 Z " fill="#FCFDFD" transform="translate(1620.109375,88.01171875)"/>
<path d="M0 0 C68.26454034 0 68.26454034 0 78.30078125 9.08203125 C84.38926259 15.61573974 87.5776928 21.78108747 87.4375 30.875 C87.42847656 31.57681396 87.41945313 32.27862793 87.41015625 33.00170898 C87.13934314 41.13456517 85.12725465 46.28698032 79.25 51.875 C75.40588233 54.98931338 71.71338313 56.56915155 67 58 C67.78503906 58.29132813 68.57007813 58.58265625 69.37890625 58.8828125 C80.03744386 63.04160386 86.31663683 67.3559928 91 78 C93.7496689 86.19646527 93.00079203 97.06083868 89.31640625 104.7890625 C84.6877245 112.56305025 79.30001525 116.5572284 71 120 C70.19820312 120.35320312 69.39640625 120.70640625 68.5703125 121.0703125 C47.06783915 128.84780286 22.86581983 123 0 123 C0 82.41 0 41.82 0 0 Z " fill="#0675A2" transform="translate(554,125)"/>
<path d="M0 0 C67.41148325 0 67.41148325 0 78.95703125 9.6328125 C80.52561576 11.34038551 81.77142749 13.0350976 83 15 C83.40992188 15.63292969 83.81984375 16.26585937 84.2421875 16.91796875 C88.00274399 23.82961223 87.93141887 31.33622016 87 39 C84.95967517 45.8793253 81.12182037 51.21446618 75 55 C72.35215532 56.22172483 69.79094177 57.11864997 67 58 C67.79664063 58.30292969 68.59328125 58.60585937 69.4140625 58.91796875 C80.08629827 63.13752669 85.92905868 67.42865653 91 78 C93.57679627 87.70541828 92.67944369 98.3958703 87.78125 107.1875 C80.28461969 118.18255778 71.16684664 119.70828834 58 123 C38.86 123 19.72 123 0 123 C0 82.41 0 41.82 0 0 Z " fill="#0474A1" transform="translate(875,125)"/>
<path d="M0 0 C7.26 0 14.52 0 22 0 C22 40.59 22 81.18 22 123 C15.07 123 8.14 123 1 123 C1 118.05 1 113.1 1 108 C0.34 108 -0.32 108 -1 108 C-1.226875 108.70125 -1.45375 109.4025 -1.6875 110.125 C-4.3116108 115.87305222 -8.27197702 120.18004941 -13.890625 123.07421875 C-23.33481731 125.88612023 -34.87522438 125.63531128 -43.8125 121.4375 C-55.58202805 114.30294783 -60.96293307 104.07399317 -64.39794922 90.93945312 C-65.37707153 86.15898572 -65.48931222 81.49164786 -65.4375 76.625 C-65.42992676 75.62057861 -65.42235352 74.61615723 -65.41455078 73.58129883 C-65.13351389 60.88232898 -61.78010612 49.13310985 -52.82421875 39.7109375 C-43.49141856 31.08397934 -35.232483 29.5947772 -22.8984375 29.78125 C-16.04849968 30.16561525 -10.99235582 32.14257271 -6 37 C-4.35 39.31 -2.7 41.62 -1 44 C-0.67 29.48 -0.34 14.96 0 0 Z " fill="#0474A1" transform="translate(1238,125)"/>
<path d="M0 0 C0.94294922 -0.02900391 1.88589844 -0.05800781 2.85742188 -0.08789062 C13.28962704 -0.18109933 22.32951403 3.62044299 30.3125 10.3125 C40.36399628 21.01952865 44.8193144 33.64884059 44.66577148 48.25439453 C44.17209053 63.17099096 39.28489019 76.03224574 28.3125 86.3125 C17.40273981 94.80728415 4.81464703 96.27500245 -8.6875 95.3125 C-20.29839241 92.9276336 -29.80268779 86.96844913 -36.6875 77.3125 C-44.79024865 64.07947843 -46.58998031 49.56884185 -44.03125 34.4296875 C-41.12209004 23.01875834 -35.51178056 13.07329522 -25.6875 6.3125 C-17.03285125 1.23087138 -9.90841852 0.09954875 0 0 Z " fill="#0675A2" transform="translate(209.6875,154.6875)"/>
<path d="M0 0 C10.12963175 7.33476136 16.09762224 15.91023942 19 28 C19.17273438 28.61939453 19.34546875 29.23878906 19.5234375 29.87695312 C20.361355 33.60980693 20.18454833 37.37689724 20.1875 41.1875 C20.19974609 42.00025391 20.21199219 42.81300781 20.22460938 43.65039062 C20.25644735 56.99050271 16.46986118 67.99913954 7.31640625 77.7734375 C3.70480511 81.24495968 0.24732089 84.13923759 -4.375 86.125 C-5.08398438 86.43695313 -5.79296875 86.74890625 -6.5234375 87.0703125 C-19.20207879 91.82980245 -32.60774948 91.51335664 -45 86 C-47.97476962 84.27383769 -50.4683434 82.31928806 -53 80 C-53.61488281 79.47535156 -54.22976563 78.95070313 -54.86328125 78.41015625 C-59.73221698 73.97911195 -62.42187782 69.00596254 -65 63 C-65.35449219 62.19820313 -65.70898438 61.39640625 -66.07421875 60.5703125 C-70.56345385 48.10652898 -69.67615617 30.98804459 -64.546875 18.9140625 C-62.16764663 14.43198077 -59.50067132 10.66911366 -56 7 C-55.40445313 6.36449219 -54.80890625 5.72898438 -54.1953125 5.07421875 C-40.71149003 -7.98998268 -15.99116587 -9.82838132 0 0 Z " fill="#0574A2" transform="translate(729,160)"/>
<path d="M0 0 C1.093125 0.598125 2.18625 1.19625 3.3125 1.8125 C8.86742692 6.33395215 12.72067595 11.12209925 15 18 C15.36076355 21.53721619 15.36076355 21.53721619 15.34057617 25.31225586 C15.34123329 26.3525444 15.34123329 26.3525444 15.34190369 27.41384888 C15.33983196 29.68114467 15.3165793 31.94767891 15.29296875 34.21484375 C15.287367 35.79667253 15.28309964 37.37850654 15.28010559 38.96034241 C15.26870229 43.10489507 15.2392746 47.24912767 15.20599365 51.39355469 C15.17519488 55.6301643 15.16157938 59.8668261 15.14648438 64.10351562 C15.11439996 72.40250633 15.06166955 80.70117636 15 89 C8.07 89 1.14 89 -6 89 C-6.33 85.37 -6.66 81.74 -7 78 C-7.99 79.2375 -8.98 80.475 -10 81.75 C-15.25262953 87.76974784 -21.35170591 90.66284668 -29.28515625 91.23828125 C-39.16730334 91.4324496 -47.74550765 90.51573242 -55.875 84.375 C-61.54890007 78.85149246 -64.17705282 72.92782838 -64.54101562 64.99121094 C-64.62018797 57.1927351 -63.83343565 51.23068287 -58.4921875 45.3359375 C-50.18721315 37.4944966 -40.35296673 36.17390736 -29.375 34.9375 C-18.30748459 33.83144582 -18.30748459 33.83144582 -8 30 C-7.47825369 23.25473334 -7.47825369 23.25473334 -9.625 17 C-14.3906752 12.98679983 -19.42875139 12.53690041 -25.47265625 12.69140625 C-30.42164705 13.29568797 -34.29191486 15.05918307 -37.60546875 18.82421875 C-38.8155622 20.49530019 -39.91867646 22.24284926 -41 24 C-43.77132017 23.69140975 -46.54199986 23.3782967 -49.3125 23.0625 C-50.09818359 22.97548828 -50.88386719 22.88847656 -51.69335938 22.79882812 C-52.45068359 22.71181641 -53.20800781 22.62480469 -53.98828125 22.53515625 C-55.03302612 22.41732788 -55.03302612 22.41732788 -56.09887695 22.29711914 C-58 22 -58 22 -61 21 C-60.35730107 14.1445447 -56.14557566 8.80356938 -51.25 4.25 C-38.26227506 -6.50354163 -14.66505072 -8.07276125 0 0 Z " fill="#0574A2" transform="translate(430,159)"/>
<path d="M0 0 C9.39803427 6.6421033 13.82237021 15.42238054 16.49609375 26.42578125 C16.49609375 33.02578125 16.49609375 39.62578125 16.49609375 46.42578125 C-4.62390625 46.42578125 -25.74390625 46.42578125 -47.50390625 46.42578125 C-44.86390837 59.16001988 -44.86390837 59.16001988 -36.44140625 67.23828125 C-30.57842309 70.71555917 -25.2233784 71.19773105 -18.50390625 70.42578125 C-11.72240574 68.23454432 -8.22740625 65.54962407 -4.50390625 59.42578125 C-2.1077605 59.56744018 0.28792272 59.71396966 2.68359375 59.86328125 C3.35712891 59.90259766 4.03066406 59.94191406 4.72460938 59.98242188 C8.39308477 60.2150569 11.91303581 60.59785136 15.49609375 61.42578125 C15.13757306 68.41693478 11.32660329 73.62275239 6.484375 78.41796875 C-4.67178912 87.75149205 -18.37798124 89.47103997 -32.50390625 88.42578125 C-43.53477673 86.34967638 -53.16298218 81.25613432 -60.1953125 72.37109375 C-69.48896693 58.55545225 -70.94458908 41.33619416 -68.10107422 25.12988281 C-65.05383312 13.43950454 -56.49316952 3.31515401 -46.2890625 -2.9296875 C-32.00399103 -10.29833703 -13.24375461 -8.3264167 0 0 Z " fill="#0575A2" transform="translate(1348.50390625,161.57421875)"/>
<path d="M0 0 C7.26 0 14.52 0 22 0 C22.0093457 1.80597656 22.01869141 3.61195313 22.02832031 5.47265625 C22.06395367 11.4639061 22.11781831 17.45476392 22.18390274 23.44573975 C22.22328102 27.0753348 22.25551619 30.70469077 22.27099609 34.33447266 C22.28622717 37.84259227 22.32078433 41.35005417 22.36830902 44.85787964 C22.39019599 46.83622203 22.39246818 48.81475033 22.39434814 50.79321289 C22.51046369 57.98122767 23.04832935 62.92274078 27 69 C32.12499716 73.75892594 35.41846596 74.30495029 42.24609375 74.20703125 C47.76367824 73.79223412 50.74293543 71.482085 54.3125 67.5 C57.67834758 63.471584 58.13052183 60.24241621 58.20532227 55.05981445 C58.22526749 53.83877518 58.24521271 52.6177359 58.26576233 51.35969543 C58.28247482 50.04087875 58.29918732 48.72206207 58.31640625 47.36328125 C58.3369826 45.99992756 58.35797925 44.63658015 58.37937927 43.27323914 C58.4345297 39.68778578 58.48396987 36.10227552 58.53222656 32.51672363 C58.58249299 28.8568008 58.63815219 25.19696043 58.69335938 21.53710938 C58.80085497 14.35814085 58.90182045 7.17910308 59 0 C66.26 0 73.52 0 81 0 C81 30.69 81 61.38 81 93 C74.07 93 67.14 93 60 93 C59.505 85.575 59.505 85.575 59 78 C58.175 79.19625 57.35 80.3925 56.5 81.625 C51.82387835 87.84512409 46.56717414 91.96620743 39 94 C28.44627407 95.17013592 19.79295213 94.47053882 11 88 C3.64484999 81.35233265 0.55980728 71.99708122 -0.3458252 62.29525757 C-0.45913257 58.28763205 -0.45197812 54.30071671 -0.390625 50.29296875 C-0.38314146 48.83182052 -0.37745856 47.37066208 -0.37347412 45.90950012 C-0.35838343 42.11012835 -0.31925099 38.31139276 -0.2746582 34.51226807 C-0.23334202 30.61699015 -0.21538648 26.72160692 -0.1953125 22.82617188 C-0.15273512 15.21712773 -0.08252768 7.60873494 0 0 Z " fill="#0675A2" transform="translate(985,155)"/>
<path d="M0 0 C0.88558594 -0.01160156 1.77117187 -0.02320313 2.68359375 -0.03515625 C13.67757155 0.01327537 22.39094101 3.77201691 30.48046875 11.19140625 C36.6959454 17.7514509 39.5 24.34947122 39.5 33.375 C32.57 33.375 25.64 33.375 18.5 33.375 C17.51 31.065 16.52 28.755 15.5 26.375 C13.49423014 23.08980219 11.2868341 20.77756628 7.8125 19 C1.45091414 17.79970078 -4.11972906 17.14799224 -9.875 20.5625 C-16.13616528 25.05995675 -19.32005446 30.65521786 -21.1875 38.125 C-22.18695647 48.51934724 -21.64643008 58.40763262 -16.6875 67.8125 C-12.87353477 72.28028784 -9.1526398 76.07682532 -3.01171875 76.578125 C2.56374548 76.67066383 6.80192448 76.73076823 11.5 73.375 C15.48331063 69.30115958 16.63737475 66.96287575 18.5 61.375 C25.43 61.375 32.36 61.375 39.5 61.375 C38.06004349 72.89465211 34.56617821 80.22007101 25.7734375 87.87890625 C15.72843933 95.56172449 3.75022288 96.11411959 -8.5 95.375 C-18.99479227 93.63324826 -27.92388026 88.05306706 -34.6796875 79.9296875 C-43.83140415 67.08586199 -45.89939086 53.77514249 -44.5 38.375 C-42.2745372 26.8627411 -36.94213574 14.7724534 -27.2109375 7.71484375 C-18.36478437 2.1414934 -10.42878023 -0.13662158 0 0 Z " fill="#0675A2" transform="translate(312.5,154.625)"/>
<path d="M0 0 C7.59 0 15.18 0 23 0 C23 34.32 23 68.64 23 104 C40.82 104 58.64 104 77 104 C77 110.27 77 116.54 77 123 C51.59 123 26.18 123 0 123 C0 82.41 0 41.82 0 0 Z " fill="#0876A3" transform="translate(74,125)"/>
<path d="M0 0 C7.26 0 14.52 0 22 0 C22 7.59 22 15.18 22 23 C27.94 23 33.88 23 40 23 C40 28.28 40 33.56 40 39 C34.06 39 28.12 39 22 39 C22.04408518 46.6176149 22.11385001 54.23439562 22.20751953 61.8515625 C22.23576107 64.44329188 22.25695965 67.03510789 22.27099609 69.62695312 C22.29238062 73.35071271 22.33901086 77.07342701 22.390625 80.796875 C22.39185364 81.95741394 22.39308228 83.11795288 22.39434814 84.31365967 C22.41406677 85.39447815 22.4337854 86.47529663 22.45410156 87.58886719 C22.46298401 88.53928894 22.47186646 89.48971069 22.48101807 90.46893311 C23.15273692 93.74489563 24.40318325 94.9544876 27 97 C29.81474607 97.48117013 29.81474607 97.48117013 32.75 97.25 C33.73484375 97.21390625 34.7196875 97.1778125 35.734375 97.140625 C36.48203125 97.09421875 37.2296875 97.0478125 38 97 C38.50546036 99.08201528 39.00416835 101.16567067 39.5 103.25 C39.7784375 104.41015625 40.056875 105.5703125 40.34375 106.765625 C41 110 41 110 41 114 C36.63772074 116.14679098 32.52749937 116.3855 27.75 116.375 C26.61546387 116.37258301 26.61546387 116.37258301 25.45800781 116.37011719 C19.56909582 116.24094105 15.00081465 115.25052952 10 112 C9.0925 111.46375 8.185 110.9275 7.25 110.375 C-0.05845775 102.66051682 -0.70092102 94.32580496 -0.48828125 84.1171875 C-0.47766914 82.17406174 -0.47766914 82.17406174 -0.46684265 80.19168091 C-0.44793782 76.78167646 -0.39898725 73.37277178 -0.34332275 69.9631958 C-0.29176754 66.47040679 -0.2692521 62.97743649 -0.24414062 59.484375 C-0.19084604 52.65575828 -0.10305168 45.82804549 0 39 C-4.29 39 -8.58 39 -13 39 C-13 33.72 -13 28.44 -13 23 C-8.71 23 -4.42 23 0 23 C0 15.41 0 7.82 0 0 Z " fill="#0575A2" transform="translate(774,133)"/>
<path d="M0 0 C7.26 0 14.52 0 22 0 C22 40.59 22 81.18 22 123 C14.74 123 7.48 123 0 123 C0 82.41 0 41.82 0 0 Z " fill="#0474A1" transform="translate(467,125)"/>
<path d="M0 0 C0.96164062 -0.00257813 1.92328125 -0.00515625 2.9140625 -0.0078125 C5.375 0.125 5.375 0.125 7.375 1.125 C7.375 7.725 7.375 14.325 7.375 21.125 C-0.75 20.9375 -0.75 20.9375 -3.27392578 20.85473633 C-9.59049767 20.78465267 -13.56977375 22.30332219 -18.375 26.5625 C-22.07505613 30.77645281 -22.87434208 33.57192739 -22.94384766 39.17871094 C-22.96371735 40.39967468 -22.98358704 41.62063843 -23.00405884 42.87860107 C-23.02138565 44.84908417 -23.02138565 44.84908417 -23.0390625 46.859375 C-23.05777946 48.221305 -23.07735328 49.58322348 -23.0977478 50.94512939 C-23.1490195 54.52233067 -23.18867152 58.09956952 -23.22589111 61.67694092 C-23.26596205 65.33029437 -23.31704025 68.98349218 -23.3671875 72.63671875 C-23.46388805 79.79938036 -23.54729349 86.96210253 -23.625 94.125 C-30.885 94.125 -38.145 94.125 -45.625 94.125 C-45.625 63.765 -45.625 33.405 -45.625 2.125 C-38.695 2.125 -31.765 2.125 -24.625 2.125 C-24.13 9.055 -24.13 9.055 -23.625 16.125 C-22.635 14.145 -21.645 12.165 -20.625 10.125 C-14.58231499 3.26573594 -9.05184161 -0.02439849 0 0 Z " fill="#0575A2" transform="translate(1429.625,153.875)"/>
<path d="M0 0 C6.93 0 13.86 0 21 0 C21 40.59 21 81.18 21 123 C14.07 123 7.14 123 0 123 C0 82.41 0 41.82 0 0 Z " fill="#0273A1" transform="translate(1133,125)"/>
<path d="M0 0 C6.02735657 3.515958 9.37149012 10.17134089 11.625 16.5625 C12.05397178 20.28374009 11.99522187 24.00633168 12 27.75 C12.02449219 28.74064453 12.04898438 29.73128906 12.07421875 30.75195312 C12.10674577 39.01923684 10.31658471 46.28482794 5.3125 53 C0.39226005 57.69139158 -3.6818457 58.7451639 -10.3125 59.0625 C-16.18631353 58.88628559 -20.10367825 57.64508893 -24.375 53.5625 C-31.09155056 45.63275052 -32.94250503 35.95090768 -32.65625 25.80078125 C-31.83237616 16.31478937 -28.88577507 7.79067122 -21.8515625 1.1171875 C-15.71139177 -3.16595599 -6.7098324 -2.79469027 0 0 Z " fill="#FCFDFE" transform="translate(219.375,173.4375)"/>
<path d="M0 0 C7.99806216 7.4128381 11.13486166 14.51062669 11.72265625 25.3203125 C11.98881098 35.11017787 11.04342579 44.59788905 4.5625 52.375 C-1.60952575 58.19796517 -5.61608391 58.72952528 -14.01171875 58.65234375 C-19.76288191 58.18674217 -22.10122872 55.6794553 -26.0625 51.8125 C-33.41838872 42.14748117 -33.83020901 30.02009163 -32.4375 18.375 C-30.66349661 10.74760294 -27.4636651 5.51510664 -21.40234375 0.58203125 C-15.35830988 -3.13090407 -6.22289512 -2.94173224 0 0 Z " fill="#FCFDFE" transform="translate(715.4375,173.625)"/>
<path d="M0 0 C5.8156971 3.8771314 8.88670727 9.84072948 10.60546875 16.48046875 C12.52117524 28.34188476 11.56233114 40.4777392 4.7109375 50.62109375 C0.41878615 55.24104664 -5.4259037 57.62943909 -11.67578125 57.8828125 C-16.93922139 57.53994756 -20.40794911 55.60448227 -24.48828125 52.3203125 C-32.88336878 42.20315573 -33.976173 31.04338534 -32.92578125 18.3828125 C-31.37388605 10.99444189 -28.45859148 4.55379158 -22.14453125 0.13671875 C-14.76244175 -4.09626511 -7.53673083 -3.76178886 0 0 Z " fill="#FAFCFD" transform="translate(1227.92578125,174.6171875)"/>
<path d="M0 0 C7.26 0 14.52 0 22 0 C22 30.69 22 61.38 22 93 C14.74 93 7.48 93 0 93 C0 62.31 0 31.62 0 0 Z " fill="#0876A3" transform="translate(1088,155)"/>
<path d="M0 0 C4.90875 -0.103125 9.8175 -0.20625 14.875 -0.3125 C16.40237793 -0.35802002 17.92975586 -0.40354004 19.50341797 -0.45043945 C28.36733563 -0.54015522 35.88401467 0.2561135 42.67163086 6.55004883 C47.04468875 11.50188251 47.35260577 15.93470291 47.27734375 22.2734375 C46.74847984 27.47269114 44.17643476 30.01507788 40.3125 33.25 C31.80821961 37.74282738 22.80955284 37.24866929 13.4375 37.125 C9.003125 37.08375 4.56875 37.0425 0 37 C0 24.79 0 12.58 0 0 Z " fill="#F6FAFB" transform="translate(897,193)"/>
<path d="M0 0 C4.74375 -0.103125 9.4875 -0.20625 14.375 -0.3125 C15.8501709 -0.35802002 17.3253418 -0.40354004 18.84521484 -0.45043945 C27.66223242 -0.54271749 35.04685619 0.30770009 41.67358398 6.58544922 C46.24689263 11.86055052 46.46652671 15.90385377 46.40625 22.72265625 C45.90248867 26.78665387 44.77556454 28.72529021 41.99609375 31.6328125 C36.52598123 35.37946491 31.65091439 36.44159613 25.09765625 36.29296875 C24.45598511 36.28994751 23.81431396 36.28692627 23.15319824 36.28381348 C20.78946511 36.26828928 18.42596389 36.22640712 16.0625 36.1875 C10.761875 36.125625 5.46125 36.06375 0 36 C0 24.12 0 12.24 0 0 Z " fill="#FCFDFE" transform="translate(577,193)"/>
<path d="M0 0 C4.434375 -0.0825 8.86875 -0.165 13.4375 -0.25 C15.50729126 -0.30462402 15.50729126 -0.30462402 17.61889648 -0.36035156 C25.44296015 -0.43048703 32.65591299 -0.09590989 38.61108398 5.51904297 C42.18738454 9.65419942 43.31008598 12.37075413 43.2109375 17.84375 C42.72610621 22.79980317 40.81848016 26.55690666 37.125 29.8125 C32.03376232 33.37636637 28.37628017 34.25001128 22.16796875 34.1953125 C21.00289795 34.19031738 19.83782715 34.18532227 18.63745117 34.18017578 C16.43472534 34.15286377 16.43472534 34.15286377 14.1875 34.125 C9.505625 34.08375 4.82375 34.0425 0 34 C0 22.78 0 11.56 0 0 Z " fill="#F9FBFC" transform="translate(897,143)"/>
<path d="M0 0 C6.435 -0.0928125 6.435 -0.0928125 13 -0.1875 C14.33675781 -0.21481201 15.67351563 -0.24212402 17.05078125 -0.27026367 C25.20826564 -0.32704856 31.49044887 -0.05178359 37.875 5.5 C41.97625844 10.32500993 42.43847811 13.10473968 42.31640625 19.2734375 C41.73183644 24.31084157 39.16012921 26.9291115 35.5625 30.25 C30.82514028 33.48527006 27.10428621 34.24752773 21.38671875 34.1953125 C20.26225342 34.19031738 19.13778809 34.18532227 17.97924805 34.18017578 C16.56297119 34.16196777 15.14669434 34.14375977 13.6875 34.125 C9.170625 34.08375 4.65375 34.0425 0 34 C0 22.78 0 11.56 0 0 Z " fill="#FCFDFE" transform="translate(577,143)"/>
<path d="M0 0 C0.80678343 15.95638341 0.80678343 15.95638341 -4 22 C-8.20591436 26.44511328 -12.4014604 29.53740747 -18.61328125 30.3359375 C-24.74315146 30.42464763 -30.08275443 29.99295129 -35 26 C-37.64530756 21.86291244 -37.63983004 17.76033547 -37 13 C-35.04490359 8.81050768 -32.31162033 7.49406097 -28.1875 5.8125 C-22.34765154 3.85540408 -16.4779033 3.11569366 -10.3828125 2.4921875 C-6.79597908 1.97031566 -3.54118871 0 0 0 Z " fill="#F8FBFC" transform="translate(424,204)"/>
<path d="M0 0 C4.80059306 2.88447652 7.69116705 7.19850114 9.4375 12.4375 C9.4375 14.7475 9.4375 17.0575 9.4375 19.4375 C-4.7525 19.4375 -18.9425 19.4375 -33.5625 19.4375 C-32.36305215 11.04136504 -30.30583122 6.22493626 -23.625 0.9375 C-16.68366346 -3.31087654 -7.40360065 -3.21103134 0 0 Z " fill="#FCFDFD" transform="translate(1334.5625,173.5625)"/>
<path d="M0 0 C4.10746873 1.77367968 6.69875485 4.16459142 9 8 C9.86053634 12.28529715 9.53108181 15.12750845 7.25 18.875 C2.94401807 22.94176071 -0.72898109 23.493264 -6.51953125 23.390625 C-10.59582089 22.74868962 -12.25528217 21.02622735 -15 18 C-16.23875709 14.28372873 -16.6851752 10.85505169 -16 7 C-11.43625334 1.3261528 -7.26799933 -0.91206266 0 0 Z " fill="#0675A2" transform="translate(1103,119)"/>
<path d="M0 0 C3.32255304 2.07500439 6.23284064 4.46568128 8 8 C8.34717992 13.29449372 8.52421718 16.74663444 5 21 C1.53854313 23.86806426 -1.50186875 24.52958436 -6.00390625 24.359375 C-9.31541016 23.76317469 -11.45757239 22.11868967 -14 20 C-16.8288298 15.7567553 -16.65268001 11.98265471 -16 7 C-12.3923675 0.81548715 -7.12018454 -1.56167616 0 0 Z " fill="#05749F" transform="translate(1561,126)"/>
<path d="M0 0 C3.58552881 1.63687185 4.79315055 2.68972583 7 6 C7.59374381 10.54946555 7.50549579 14.72295801 5.8125 19 C2.68041063 22.45609861 -0.48265055 23.11127527 -5 23.375 C-9.09382393 23.27458545 -11.11837018 21.96638364 -14 19 C-16.10081332 15.84878002 -16.53041608 13.89550991 -16.4609375 10.13671875 C-15.61684071 6.22382939 -12.9177214 3.60780798 -10 1 C-6.80876226 -0.59561887 -3.47254909 -0.3799142 0 0 Z " fill="#09759E" transform="translate(1619,126)"/>
<path d="M0 0 C0.33 0 0.66 0 1 0 C1.02683987 2.97922593 1.04676037 5.95821295 1.0625 8.9375 C1.07087891 9.78763672 1.07925781 10.63777344 1.08789062 11.51367188 C1.09111328 12.32255859 1.09433594 13.13144531 1.09765625 13.96484375 C1.10289307 14.7137085 1.10812988 15.46257324 1.11352539 16.23413086 C1 18 1 18 0 19 C-0.2312105 26.05192014 0.33502977 32.98218921 1 40 C-4.75804947 31.36292579 -4.15031878 18.17714535 -2.32421875 8.37109375 C-1.62188082 5.5517562 -0.86738746 2.77254206 0 0 Z " fill="#D3EBEE" transform="translate(1525,122)"/>
<path d="M0 0 C0.33 0 0.66 0 1 0 C1.07347656 1.74410156 1.07347656 1.74410156 1.1484375 3.5234375 C1.65971847 14.74918379 2.62761957 25.84774353 4 37 C1.61544108 34.61544108 1.51444828 33.39275747 0.9375 30.125 C0.31592031 26.59970268 0.31592031 26.59970268 -0.52075195 23.12304688 C-1.0321367 20.85763587 -1.12937904 18.84396814 -1.1328125 16.5234375 C-1.13410156 15.688125 -1.13539062 14.8528125 -1.13671875 13.9921875 C-1.13285156 13.12851563 -1.12898438 12.26484375 -1.125 11.375 C-1.12886719 10.50359375 -1.13273437 9.6321875 -1.13671875 8.734375 C-1.13542969 7.90164062 -1.13414063 7.06890625 -1.1328125 6.2109375 C-1.13168457 5.45087402 -1.13055664 4.69081055 -1.12939453 3.90771484 C-1 2 -1 2 0 0 Z " fill="#D6EFF4" transform="translate(1492,133)"/>
<path d="M0 0 C0.66 0.99 1.32 1.98 2 3 C1.50628906 3.61488281 1.01257812 4.22976562 0.50390625 4.86328125 C-0.45708984 6.07564453 -0.45708984 6.07564453 -1.4375 7.3125 C-2.07558594 8.11300781 -2.71367188 8.91351563 -3.37109375 9.73828125 C-5.16111355 11.98697277 -5.16111355 11.98697277 -6 15 C-11.25714286 19 -11.25714286 19 -15 19 C-14.61666504 18.53102295 -14.23333008 18.0620459 -13.83837891 17.57885742 C-12.09919856 15.44953377 -10.36207968 13.31853763 -8.625 11.1875 C-8.02171875 10.44951172 -7.4184375 9.71152344 -6.796875 8.95117188 C-6.21679688 8.23896484 -5.63671875 7.52675781 -5.0390625 6.79296875 C-4.50490723 6.1383667 -3.97075195 5.48376465 -3.42041016 4.80932617 C-2.20566898 3.26198226 -1.09120531 1.63680796 0 0 Z " fill="#DAEFF3" transform="translate(1656,211)"/>
<path d="M0 0 C0.33 0.99 0.66 1.98 1 3 C2.28632324 2.9685791 2.28632324 2.9685791 3.59863281 2.93652344 C6.78918472 2.86823473 9.97936346 2.81814487 13.17041016 2.78027344 C14.5497668 2.76019358 15.92903869 2.73292334 17.30810547 2.69824219 C19.29356979 2.64957183 21.27966254 2.62913582 23.265625 2.609375 C24.45961914 2.58842773 25.65361328 2.56748047 26.88378906 2.54589844 C30.57462274 3.08373537 31.7103679 4.13548192 34 7 C33.34 7.33 32.68 7.66 32 8 C31.27683594 7.26523438 31.27683594 7.26523438 30.5390625 6.515625 C26.91289918 4.35108444 23.46804536 4.63908192 19.375 4.75 C18.57336426 4.76095703 17.77172852 4.77191406 16.94580078 4.78320312 C11.25422297 4.88909294 5.64824603 5.27119406 0 6 C-1.125 2.25 -1.125 2.25 0 0 Z " fill="#CCECF0" transform="translate(1521,189)"/>
<path d="M0 0 C0.66 0.66 1.32 1.32 2 2 C1.7578125 3.85546875 1.7578125 3.85546875 1.125 6.1875 C-1.55832826 18.39401287 0.15009369 30.04057174 3 42 C2.01 41.67 1.02 41.34 0 41 C-1.6908196 33.90645331 -2.31089207 27.21917709 -2.25 19.9375 C-2.25773437 19.00873047 -2.26546875 18.07996094 -2.2734375 17.12304688 C-2.25659424 11.12263577 -1.49889855 5.81120589 0 0 Z " fill="#197697" transform="translate(1523,122)"/>
<path d="M0 0 C0.33 0 0.66 0 1 0 C1.44933921 8.83700441 1.44933921 8.83700441 -2 13 C-5.56493725 15.95380515 -8.57481871 16.45767663 -13.0625 16.3046875 C-15.83567458 15.86858343 -17.77844431 14.66616677 -20 13 C-19.34 12.67 -18.68 12.34 -18 12 C-17.34 12.33 -16.68 12.66 -16 13 C-13.78861145 12.91188555 -11.57957815 12.7570216 -9.375 12.5625 C-8.18648437 12.46066406 -6.99796875 12.35882813 -5.7734375 12.25390625 C-4.85820313 12.17011719 -3.94296875 12.08632812 -3 12 C-2.01 8.04 -1.02 4.08 0 0 Z " fill="#277A98" transform="translate(1568,134)"/>
<path d="M0 0 C0.66 1.32 1.32 2.64 2 4 C1.45730469 4.51949219 0.91460938 5.03898437 0.35546875 5.57421875 C-3.35955157 9.19552685 -6.44086391 12.45042474 -9 17 C-9.66 17 -10.32 17 -11 17 C-9.56407335 12.88016856 -7.53749031 9.74182002 -4.9375 6.25 C-4.22464844 5.28578125 -3.51179688 4.3215625 -2.77734375 3.328125 C-1 1 -1 1 0 0 Z " fill="#1F7CA3" transform="translate(1517,82)"/>
<path d="M0 0 C0.84062397 3.09773244 1.08935201 5.78332751 1 9 C0.01 9 -0.98 9 -2 9 C-2.66 13.29 -3.32 17.58 -4 22 C-4.66 21.34 -5.32 20.68 -6 20 C-5.8424989 12.91245062 -2.63951156 6.47703022 0 0 Z " fill="#2C84A3" transform="translate(1502,104)"/>
<path d="M0 0 C4 4 8 8 12 12 C11.01 12.33 10.02 12.66 9 13 C7.5 11.625 7.5 11.625 6 10 C6 9.34 6 8.68 6 8 C4.68 7.67 3.36 7.34 2 7 C1.34 4.69 0.68 2.38 0 0 Z " fill="#D7F0F4" transform="translate(1553,260)"/>
<path d="M0 0 C0.66 0 1.32 0 2 0 C2.71033431 5.52967941 3.30267176 10.49983036 2 16 C1.34 16 0.68 16 0 16 C0 10.72 0 5.44 0 0 Z " fill="#EBF9F9" transform="translate(1679,136)"/>
<path d="M0 0 C1.65 0 3.3 0 5 0 C6.59412284 3.18824568 6.10174735 6.62896662 6.0625 10.125 C6.05798828 10.87910156 6.05347656 11.63320312 6.04882812 12.41015625 C6.03703499 14.27347127 6.01909942 16.13674555 6 18 C4.68 18.33 3.36 18.66 2 19 C2.32613281 18.44441406 2.65226562 17.88882813 2.98828125 17.31640625 C4.14667773 14.66417029 4.23529427 12.81819082 4.1875 9.9375 C4.18105469 9.08027344 4.17460938 8.22304687 4.16796875 7.33984375 C4.08590034 4.84522032 4.08590034 4.84522032 3 2 C2.01 1.67 1.02 1.34 0 1 C0 0.67 0 0.34 0 0 Z " fill="#B9DCE3" transform="translate(1621,127)"/>
<path d="M0 0 C2.28814723 2.28814723 2.75451161 3.80751622 3.6875 6.875 C3.95949219 7.73867187 4.23148438 8.60234375 4.51171875 9.4921875 C5.01692938 12.08694932 4.85561171 13.530785 4 16 C3.34 14.02 2.68 12.04 2 10 C1.34 10 0.68 10 0 10 C0 6.7 0 3.4 0 0 Z " fill="#368CA7" transform="translate(1672,110)"/>
<path d="M0 0 C1.66611905 -0.042721 3.33382885 -0.04063832 5 0 C5.33 0.33 5.66 0.66 6 1 C8.57391641 1.53176398 11.15859517 1.96430799 13.75 2.40234375 C14.86375 2.69818359 14.86375 2.69818359 16 3 C16.33 3.66 16.66 4.32 17 5 C10.69732561 4.63223832 5.66748157 3.83374078 0 1 C0 0.67 0 0.34 0 0 Z " fill="#CDE9EE" transform="translate(1559,199)"/>
<path d="M0 0 C1.90318884 2.85478326 2.4619099 4.41941308 3.125 7.6875 C3.29257813 8.49574219 3.46015625 9.30398437 3.6328125 10.13671875 C3.75398438 10.75160156 3.87515625 11.36648437 4 12 C3.34 11.67 2.68 11.34 2 11 C2 10.01 2 9.02 2 8 C0.68 8.33 -0.64 8.66 -2 9 C-2.25 3.375 -2.25 3.375 0 0 Z " fill="#CFE5E9" transform="translate(1496,171)"/>
<path d="M0 0 C0.75 1.75 0.75 1.75 1 4 C-1.71699158 7.69510854 -4.65638712 8.81537831 -9 10 C-8.06409496 8.8944811 -7.12620142 7.79064547 -6.1875 6.6875 C-5.66542969 6.07261719 -5.14335938 5.45773437 -4.60546875 4.82421875 C-3.12827531 3.14575321 -1.59960869 1.56117966 0 0 Z " fill="#D1ECF2" transform="translate(1604,274)"/>
<path d="M0 0 C0.8125 1.625 0.8125 1.625 1 4 C-2.80816034 9.54903364 -2.80816034 9.54903364 -6.3125 10.875 C-6.869375 10.91625 -7.42625 10.9575 -8 11 C-5.50127818 7.1626772 -2.9156164 3.54039134 0 0 Z " fill="#D9F0F3" transform="translate(1640,231)"/>
<path d="M0 0 C-0.94875 0.45375 -1.8975 0.9075 -2.875 1.375 C-5.25194408 2.91104405 -5.92168205 3.76867199 -6.84375 6.4921875 C-7.32542565 8.99265079 -7.71989878 11.46943037 -8 14 C-8.33 14 -8.66 14 -9 14 C-9.05437607 12.41705218 -9.09296271 10.83355744 -9.125 9.25 C-9.14820313 8.36828125 -9.17140625 7.4865625 -9.1953125 6.578125 C-8.98720489 3.83110453 -8.54477419 2.27112497 -7 0 C-3.86650268 -1.04449911 -3.01031744 -0.93423645 0 0 Z " fill="#CFEBEE" transform="translate(1553,127)"/>
<path d="M0 0 C0.33 0 0.66 0 1 0 C1.33 4.62 1.66 9.24 2 14 C1.01 13.67 0.02 13.34 -1 13 C-2.51403812 8.15507803 -1.36602172 4.7408989 0 0 Z " fill="#2481A7" transform="translate(1648,154)"/>
<path d="M0 0 C1.65 0 3.3 0 5 0 C2.61820737 3.74281699 0.25524265 6.97727468 -3 10 C-3 8.02 -3 6.04 -3 4 C-1.68 4 -0.36 4 1 4 C0.67 2.68 0.34 1.36 0 0 Z " fill="#17779A" transform="translate(1618,252)"/>
<path d="M0 0 C0.33 0 0.66 0 1 0 C1.33 4.29 1.66 8.58 2 13 C0.35 13 -1.3 13 -3 13 C-2.01 8.71 -1.02 4.42 0 0 Z " fill="#DAECF3" transform="translate(1675,169)"/>
<path d="M0 0 C0.33 0.99 0.66 1.98 1 3 C-2.96 3 -6.92 3 -11 3 C-10.67 2.01 -10.34 1.02 -10 0 C-6.7169902 -1.6415049 -3.57454967 -0.51888624 0 0 Z " fill="#E6F5F8" transform="translate(1620,124)"/>
<path d="M0 0 C2.69254991 0.70670728 2.69254991 0.70670728 5 1 C4.67 1.66 4.34 2.32 4 3 C-1.28 1.68 -6.56 0.36 -12 -1 C-12 -1.33 -12 -1.66 -12 -2 C-6.68494042 -3.1463854 -4.45954872 -3.05127017 0 0 Z " fill="#C2E2EB" transform="translate(1614,52)"/>
<path d="M0 0 C1 2 1 2 0.375 4.9375 C-1.22279992 8.49623618 -2.45062331 9.49151491 -6 11 C-6.66 10.67 -7.32 10.34 -8 10 C-5.36 6.7 -2.72 3.4 0 0 Z " fill="#D4EDF2" transform="translate(1631,242)"/>
<path d="M0 0 C0.99 0.33 1.98 0.66 3 1 C0.69 3.97 -1.62 6.94 -4 10 C-5 7 -5 7 -4.25 4.4375 C-3 2 -3 2 0 0 Z " fill="#1B789E" transform="translate(1629,241)"/>
<path d="M0 0 C1.4391134 0.28359887 2.87625518 0.57721399 4.3125 0.875 C5.11300781 1.03742188 5.91351562 1.19984375 6.73828125 1.3671875 C9 2 9 2 12 4 C11.34 4.66 10.68 5.32 10 6 C8.68 6 7.36 6 6 6 C5.67 5.01 5.34 4.02 5 3 C2.49552484 1.78130071 2.49552484 1.78130071 0 1 C0 0.67 0 0.34 0 0 Z " fill="#DBEEF0" transform="translate(1598,80)"/>
<path d="M0 0 C0.33 1.32 0.66 2.64 1 4 C-0.43359375 6.140625 -0.43359375 6.140625 -2.4375 8.25 C-3.09621094 8.95640625 -3.75492188 9.6628125 -4.43359375 10.390625 C-5.20896484 11.18726563 -5.20896484 11.18726563 -6 12 C-6.66 11.67 -7.32 11.34 -8 11 C-5.36 7.37 -2.72 3.74 0 0 Z " fill="#2F7E9D" transform="translate(1640,175)"/>
<path d="M0 0 C0.33 0 0.66 0 1 0 C1.99 4.95 2.98 9.9 4 15 C3.01 14.67 2.02 14.34 1 14 C-0.38226016 11.23547967 -0.09525387 8.9538637 -0.0625 5.875 C-0.05347656 4.77929688 -0.04445313 3.68359375 -0.03515625 2.5546875 C-0.02355469 1.71164063 -0.01195312 0.86859375 0 0 Z " fill="#3184A2" transform="translate(1522,149)"/>
<path d="M0 0 C3.96 0.33 7.92 0.66 12 1 C12 1.33 12 1.66 12 2 C7.71 2.66 3.42 3.32 -1 4 C-0.67 2.68 -0.34 1.36 0 0 Z " fill="#E1F1F4" transform="translate(1559,49)"/>
<path d="M0 0 C0.66 0 1.32 0 2 0 C2.86627399 1.59766103 3.71766465 3.20339944 4.5625 4.8125 C5.27599609 6.15248047 5.27599609 6.15248047 6.00390625 7.51953125 C7 10 7 10 6 13 C4.99491199 11.21118264 3.99607264 9.41885304 3 7.625 C2.1646875 6.12839844 2.1646875 6.12839844 1.3125 4.6015625 C0 2 0 2 0 0 Z " fill="#1F7696" transform="translate(1504,191)"/>
<path d="M0 0 C2.08218362 -0.10832169 4.16599129 -0.18573541 6.25 -0.25 C7.99023438 -0.31960937 7.99023438 -0.31960937 9.765625 -0.390625 C13.57666013 0.06964494 14.65511755 1.05148444 17 4 C16.01 4.495 16.01 4.495 15 5 C14.45859375 4.51917969 13.9171875 4.03835937 13.359375 3.54296875 C10.52102712 1.68676442 8.61207374 1.51262344 5.25 1.3125 C3.77273438 1.21388672 3.77273438 1.21388672 2.265625 1.11328125 C1.14414063 1.05720703 1.14414063 1.05720703 0 1 C0 0.67 0 0.34 0 0 Z " fill="#B7D8E2" transform="translate(1538,192)"/>
<path d="M0 0 C1.76462683 3.08809695 2 4.23312136 2 8 C2.99 8 3.98 8 5 8 C5 9.65 5 11.3 5 13 C0.17970402 9.14376321 0.17970402 9.14376321 -0.33203125 5.88671875 C-0.3145776 3.92143786 -0.16596091 1.95833873 0 0 Z " fill="#3A86A3" transform="translate(1603,134)"/>
<path d="M0 0 C2.40072955 2.88087546 4.47291037 5.56404834 6 9 C4.35 9 2.7 9 1 9 C0.67 6.03 0.34 3.06 0 0 Z " fill="#CEECF1" transform="translate(1507,199)"/>
<path d="M0 0 C0 0.33 0 0.66 0 1 C-1.7015625 1.4640625 -1.7015625 1.4640625 -3.4375 1.9375 C-6.78775099 2.62924531 -6.78775099 2.62924531 -8 4 C-9.66617115 4.04063832 -11.33388095 4.042721 -13 4 C-8.74504132 -0.44836589 -5.9812469 -0.09647172 0 0 Z " fill="#277998" transform="translate(1561,126)"/>
<path d="M0 0 C0.33 0.66 0.66 1.32 1 2 C-0.80831392 5.61662784 -3.05278838 8.25604436 -6 11 C-6.66 10.67 -7.32 10.34 -8 10 C-5.36 6.7 -2.72 3.4 0 0 Z " fill="#C6E6EE" transform="translate(1622,253)"/>
<path d="M0 0 C0.6875 1.6875 0.6875 1.6875 1 4 C-0.25 6.6875 -0.25 6.6875 -2 9 C-2.99 9.33 -3.98 9.66 -5 10 C-3.66511872 6.40608886 -2.03977277 3.24509304 0 0 Z " fill="#CAE9F0" transform="translate(1662,201)"/>
<path d="M0 0 C1.65 0 3.3 0 5 0 C5.12375 0.804375 5.2475 1.60875 5.375 2.4375 C5.684375 3.7059375 5.684375 3.7059375 6 5 C6.66 5.33 7.32 5.66 8 6 C5 6 5 6 3.61328125 4.6875 C2.40885417 3.125 1.20442708 1.5625 0 0 Z " fill="#287CA0" transform="translate(1567,275)"/>
<path d="M0 0 C1.11375 0.598125 2.2275 1.19625 3.375 1.8125 C4.00148438 2.14894531 4.62796875 2.48539063 5.2734375 2.83203125 C7 4 7 4 9 7 C8.01 7 7.02 7 6 7 C6 6.34 6 5.68 6 5 C4.68 5 3.36 5 2 5 C2 4.01 2 3.02 2 2 C1.34 2 0.68 2 0 2 C0 1.34 0 0.68 0 0 Z " fill="#277DA1" transform="translate(1630,61)"/>
<path d="M0 0 C-1.28813342 0.83878455 -2.58063256 1.67086783 -3.875 2.5 C-4.59429688 2.9640625 -5.31359375 3.428125 -6.0546875 3.90625 C-8 5 -8 5 -10 5 C-9.01906046 2.54765115 -8.31296172 1.2190732 -6.125 -0.3125 C-3.62654486 -1.12082372 -2.47071024 -0.71847013 0 0 Z " fill="#D5EFF3" transform="translate(1544,61)"/>
<path d="M0 0 C1.32 0.33 2.64 0.66 4 1 C2.71186658 1.83878455 1.41936744 2.67086783 0.125 3.5 C-0.59429688 3.9640625 -1.31359375 4.428125 -2.0546875 4.90625 C-4 6 -4 6 -6 6 C-6 5.34 -6 4.68 -6 4 C-4.35 3.67 -2.7 3.34 -1 3 C-0.67 2.01 -0.34 1.02 0 0 Z " fill="#D5F0F4" transform="translate(1619,193)"/>
<path d="M0 0 C0.33 1.32 0.66 2.64 1 4 C0.34 4 -0.32 4 -1 4 C-1.103125 4.639375 -1.20625 5.27875 -1.3125 5.9375 C-1.539375 6.618125 -1.76625 7.29875 -2 8 C-2.99 8.33 -3.98 8.66 -5 9 C-3.7508258 5.54074837 -2.32472205 2.85306797 0 0 Z " fill="#D2ECF0" transform="translate(1534,105)"/>
<path d="M0 0 C0.66 0.99 1.32 1.98 2 3 C1.21654285 4.17219543 0.42297164 5.33763668 -0.375 6.5 C-0.81585937 7.1496875 -1.25671875 7.799375 -1.7109375 8.46875 C-2.13632813 8.9740625 -2.56171875 9.479375 -3 10 C-3.66 10 -4.32 10 -5 10 C-3.66511872 6.40608886 -2.03977277 3.24509304 0 0 Z " fill="#2E829F" transform="translate(1511,89)"/>
<path d="M0 0 C0.33 0.66 0.66 1.32 1 2 C0.67 2.66 0.34 3.32 0 4 C-0.99 4 -1.98 4 -3 4 C-3.33 4.99 -3.66 5.98 -4 7 C-5.32 6.67 -6.64 6.34 -8 6 C-5.36 4.02 -2.72 2.04 0 0 Z " fill="#2F7E9E" transform="translate(1627,190)"/>
<path d="M0 0 C0.66 0 1.32 0 2 0 C2.36368892 1.60203467 2.71561952 3.20674203 3.0625 4.8125 C3.25972656 5.70582031 3.45695312 6.59914062 3.66015625 7.51953125 C4 10 4 10 3 13 C2.34 13 1.68 13 1 13 C1.01160156 12.31292969 1.02320313 11.62585938 1.03515625 10.91796875 C1.04417969 10.01691406 1.05320312 9.11585938 1.0625 8.1875 C1.07410156 7.29417969 1.08570313 6.40085938 1.09765625 5.48046875 C1.11009967 2.86586209 1.11009967 2.86586209 0 0 Z " fill="#DAF1F4" transform="translate(1567,131)"/>
<path d="M0 0 C0.33 0.66 0.66 1.32 1 2 C-1.47812494 5.45167403 -2.79606135 7.23163306 -7 8 C-6.02133662 6.85373678 -5.04205413 5.70800212 -4.0625 4.5625 C-3.51722656 3.92441406 -2.97195313 3.28632812 -2.41015625 2.62890625 C-1.63204305 1.73008851 -0.84063472 0.84063472 0 0 Z " fill="#1C769E" transform="translate(1525,74)"/>
<path d="M0 0 C3.057952 1.73559438 5.63379989 3.38472619 8 6 C5.6875 6.25 5.6875 6.25 3 6 C1.02389614 3.95575462 0 2.8823175 0 0 Z " fill="#D8F2F7" transform="translate(1576,285)"/>
<path d="M0 0 C2.31 1.98 4.62 3.96 7 6 C6.01 6.33 5.02 6.66 4 7 C1.23609263 4.59660228 0.95934081 3.83736322 0 0 Z " fill="#C2E5EA" transform="translate(1558,266)"/>
<path d="M0 0 C4.875 4.625 4.875 4.625 6 8 C4.68 7.67 3.36 7.34 2 7 C1.34 4.69 0.68 2.38 0 0 Z " fill="#C5E6EE" transform="translate(1535,237)"/>
<path d="M0 0 C1.45742463 -0.08096803 2.91612807 -0.13917774 4.375 -0.1875 C5.18710938 -0.22230469 5.99921875 -0.25710937 6.8359375 -0.29296875 C7.55007813 -0.19628906 8.26421875 -0.09960938 9 0 C9.66 0.99 10.32 1.98 11 3 C10.01 3.495 10.01 3.495 9 4 C8.01 3.34 7.02 2.68 6 2 C4.0103005 1.60986284 2.00980131 1.26797351 0 1 C0 0.67 0 0.34 0 0 Z " fill="#CFEBF0" transform="translate(1555,125)"/>
<path d="M0 0 C1.32 0 2.64 0 4 0 C3.67 2.97 3.34 5.94 3 9 C1.35649921 5.71299843 0.58678331 3.52069985 0 0 Z " fill="#EAF9F7" transform="translate(1674,113)"/>
<path d="M0 0 C2.64 0 5.28 0 8 0 C8 1.65 8 3.3 8 5 C5.36 3.68 2.72 2.36 0 1 C0 0.67 0 0.34 0 0 Z " fill="#D3EDF2" transform="translate(1627,59)"/>
<path d="M0 0 C0.99 0.33 1.98 0.66 3 1 C1.35 2.98 -0.3 4.96 -2 7 C-2.33 5.68 -2.66 4.36 -3 3 C-2.01 3 -1.02 3 0 3 C0 2.01 0 1.02 0 0 Z " fill="#CBE7EE" transform="translate(1631,183)"/>
</svg>
